# xmcd
# Track frame offsets:
# 150
# 21235
# 32146
# 44136
# 57932
# 72134
# 85693
# 96414
# 104670
# 116555
# 125720
# 135067
# 146583
# 156442
# 166348
# 175551
# 184217
# 195058
# 204408
# 216377
# 226886
# 237135
# 247694
# 257961
# 268092
#
# Disc length: 3699 seconds
# Revision: 0
# Processed by: cddbd v1.5.2PL0 Copyright (c) Steve Scherf et al.
# Submitted via: VisiTrax 2.11.3.279 - For more info visit www.synapsa.com
#
DISCID=630e7119
DTITLE=Everly Brothers The - Everly Brothers The: The Complete US and UK Single
DTITLE=s A's and B's and EP's 1956-1962: CD3 of 3: *ReMastered Tracks
DYEAR=2015
DGENRE=Pop
TTITLE0=Barbara Allen*
TTITLE1=Long Time Gone*
TTITLE2=Who's Gonna Shoe Your Pretty Little Feet*
TTITLE3=Down In The Willow Garden* Kentucky*
TTITLE4=Kentucky*
TTITLE5=Rockin' Alone (In An Old Rocking Chair)
TTITLE6=Sleepless Nights*
TTITLE7=Carol Jane*
TTITLE8=Nashville Blues*
TTITLE9=That's What You Do To Me*
TTITLE10=You Thrill Me*
TTITLE11=Memories Are Made Of This*
TTITLE12=Oh, True Love*
TTITLE13=Just In Case*
TTITLE14=I Want You To Know*
TTITLE15=What Kind Of Girl Are You*
TTITLE16=Some Sweet Day*
TTITLE17=Made To Love*
TTITLE18=That's Just To Much*
TTITLE19=Baby What You Want Me To Do*
TTITLE20=Sigh, Cry, Almost Die*
TTITLE21=Love Hurts*
TTITLE22=So How Come (No One Loves Me)*
TTITLE23=Donna, Donna*
TTITLE24=A Change Of Heart*
EXTD=Compilation and ReMastering: acrobatmusic.net: 2015
EXTT0=
EXTT1=
EXTT2=
EXTT3=
EXTT4=
EXTT5=
EXTT6=
EXTT7=
EXTT8=
EXTT9=
EXTT10=
EXTT11=
EXTT12=
EXTT13=
EXTT14=
EXTT15=
EXTT16=
EXTT17=
EXTT18=
EXTT19=
EXTT20=
EXTT21=
EXTT22=
EXTT23=
EXTT24=
PLAYORDER=
